<svg width="36" height="42" viewBox="0 0 36 42" fill="none" xmlns="http://www.w3.org/2000/svg">
<path d="M33.8321 41.0001H6.63286C5.99143 41.0001 5.46924 40.5005 5.46924 39.8956V15.6005C5.46924 11.9514 8.61473 8.96179 12.4633 8.96179H33.8362C34.4776 8.96179 34.9998 9.46135 34.9998 10.0663V39.8917C34.9998 40.5044 34.4735 41.0001 33.8321 41.0001Z" fill="#D1CCC5" stroke="white" stroke-miterlimit="10" stroke-linecap="round" stroke-linejoin="round"/>
<path d="M29.367 37.347H2.16363C1.5263 37.347 1 36.8513 1 36.2425V11.9474C1 8.29828 4.14549 5.30872 7.99409 5.30872H29.367C30.0084 5.30872 30.5306 5.80828 30.5306 6.41321V36.2425C30.5347 36.8513 30.0084 37.347 29.367 37.347Z" fill="#D1CCC5" stroke="white" stroke-miterlimit="10" stroke-linecap="round" stroke-linejoin="round"/>
<path d="M6.2749 27.9218H25.2589" stroke="white" stroke-miterlimit="10" stroke-linecap="round" stroke-linejoin="round"/>
<path d="M6.2749 14.3438H25.2589" stroke="white" stroke-miterlimit="10" stroke-linecap="round" stroke-linejoin="round"/>
<path d="M6.2749 21.1346H25.2589" stroke="white" stroke-miterlimit="10" stroke-linecap="round" stroke-linejoin="round"/>
<path d="M16.6205 9.25057L13.9849 11.0107V1L16.6205 2.44404L19.2602 1V11.0107L16.6205 9.25057Z" fill="#D1CCC5" stroke="white" stroke-miterlimit="10" stroke-linecap="round" stroke-linejoin="round"/>
</svg>
