<svg width="40" height="40" viewBox="0 0 40 40" fill="none" xmlns="http://www.w3.org/2000/svg">
<path d="M0.705927 14.9635L17.5015 0.92257C18.2187 0.315368 19.1187 0 20 0C20.8813 0 21.7813 0.315368 22.4985 0.92257L39.2941 14.9635M0.705927 14.9635C-0.700346 16.1403 0.13873 18.4326 1.95282 18.4326H4.27786C4.32943 18.4326 4.37161 18.4749 4.37161 18.5267V36.0791C4.37161 38.2349 6.12946 40 8.27637 40H31.7189C33.8659 40 35.6237 38.2349 35.6237 36.0791V18.5267C35.6237 18.4749 35.6659 18.4326 35.7175 18.4326H38.0472C39.8613 18.4373 40.7003 16.1403 39.2941 14.9635M0.705927 14.9635L0.768562 15.0384C-0.567983 16.1569 0.230367 18.3349 1.95282 18.3349H4.27786C4.38374 18.3349 4.46927 18.4214 4.46927 18.5267V36.0791C4.46927 38.1813 6.18377 39.9023 8.27637 39.9023H31.7189C33.8115 39.9023 35.526 38.1813 35.526 36.0791V18.5267C35.526 18.4214 35.6116 18.3349 35.7175 18.3349H38.0472H38.0474C39.7692 18.3394 40.5684 16.1572 39.2314 15.0384M0.705927 14.9635L0.768597 15.0384L17.5642 0.997495L17.5646 0.997102C18.264 0.405005 19.1416 0.0976562 20 0.0976562C20.8584 0.0976562 21.736 0.405005 22.4354 0.997103L22.4358 0.997494L39.2314 15.0384M39.2941 14.9635L39.2314 15.0384M39.2941 14.9635L39.2314 15.0384L39.2314 15.0384M11.5638 26.4592L11.5638 26.459C11.8765 25.5551 12.3267 24.708 12.9097 23.9464C12.9098 23.9464 12.9098 23.9463 12.9098 23.9463L12.9874 24.0056C13.5405 23.2808 14.1968 22.65 14.9421 22.1276L11.5638 26.4592ZM11.5638 26.4592C11.2414 27.3969 11.0803 28.3773 11.0803 29.3763V30.619C11.0803 31.9199 12.1315 32.976 13.428 32.976H26.572C27.8359 32.976 28.8667 31.9723 28.9177 30.7166H28.9244V30.619V29.3716C28.9244 28.3726 28.7633 27.3922 28.4409 26.4545L28.4409 26.4543C28.1282 25.5504 27.678 24.7033 27.0949 23.9417C26.5516 23.2296 25.9096 22.6073 25.1823 22.088C25.4448 21.4329 25.5868 20.7254 25.5868 20C25.5868 16.9057 23.0872 14.3952 20.0047 14.3952C16.9222 14.3952 14.4179 16.9104 14.4179 20.0047C14.4179 20.7297 14.5553 21.4372 14.822 22.0929L11.5638 26.4592Z" fill="#D1CCC5" stroke="#FAFAFA" stroke-width="0.195312"/>
<path d="M20.0003 14.4172C14.4002 14.4172 14.3335 19.4172 15.0002 21.9172C13.6669 22.5839 11.0002 24.7172 11.0002 27.9172C11.0002 31.9172 11.5003 31.9172 12.0003 32.4172C12.4003 32.8172 12.8336 32.9172 13.0003 32.9172H27.0005C27.4005 32.9172 27.8339 32.5839 28.0005 32.4172C28.3339 32.2506 29.0005 31.1172 29.0005 27.9172C29.0005 24.7172 26.3338 22.5839 25.0005 21.9172C25.6671 19.4172 25.6004 14.4172 20.0003 14.4172Z" fill="#D1CCC5" stroke="#FAFAFA"/>
</svg>
